<svg xmlns="http://www.w3.org/2000/svg" xmlns:xlink="http://www.w3.org/1999/xlink" width="2000" zoomAndPan="magnify" viewBox="0 0 1500 1499.999933" height="2000" preserveAspectRatio="xMidYMid meet" version="1.0"><defs><clipPath id="739e2086b8"><path d="M 350 738 L 588.058594 738 L 588.058594 1275 L 350 1275 Z M 350 738 " clip-rule="nonzero"/></clipPath><clipPath id="0daa083ece"><path d="M 373.707031 738.082031 L 564.808594 738.082031 C 577.652344 738.082031 588.058594 748.492188 588.058594 761.332031 L 588.058594 1251.664062 C 588.058594 1264.507812 577.652344 1274.914062 564.808594 1274.914062 L 373.707031 1274.914062 C 360.867188 1274.914062 350.457031 1264.507812 350.457031 1251.664062 L 350.457031 761.332031 C 350.457031 748.492188 360.867188 738.082031 373.707031 738.082031 Z M 373.707031 738.082031 " clip-rule="nonzero"/></clipPath><clipPath id="9113c5f6b6"><path d="M 0.398438 0 L 238.058594 0 L 238.058594 537 L 0.398438 537 Z M 0.398438 0 " clip-rule="nonzero"/></clipPath><clipPath id="e325458da5"><path d="M 23.707031 0.0820312 L 214.808594 0.0820312 C 227.652344 0.0820312 238.058594 10.492188 238.058594 23.332031 L 238.058594 513.664062 C 238.058594 526.507812 227.652344 536.914062 214.808594 536.914062 L 23.707031 536.914062 C 10.867188 536.914062 0.457031 526.507812 0.457031 513.664062 L 0.457031 23.332031 C 0.457031 10.492188 10.867188 0.0820312 23.707031 0.0820312 Z M 23.707031 0.0820312 " clip-rule="nonzero"/></clipPath><clipPath id="b10c98da1d"><rect x="0" width="239" y="0" height="537"/></clipPath><clipPath id="5eecbbec73"><path d="M 631 574 L 868.800781 574 L 868.800781 1387.875 L 631 1387.875 Z M 631 574 " clip-rule="nonzero"/></clipPath><clipPath id="1d14867f36"><path d="M 654.449219 574.820312 L 845.550781 574.820312 C 858.394531 574.820312 868.800781 585.230469 868.800781 598.070312 L 868.800781 1363.800781 C 868.800781 1376.640625 858.394531 1387.050781 845.550781 1387.050781 L 654.449219 1387.050781 C 641.605469 1387.050781 631.199219 1376.640625 631.199219 1363.800781 L 631.199219 598.070312 C 631.199219 585.230469 641.605469 574.820312 654.449219 574.820312 Z M 654.449219 574.820312 " clip-rule="nonzero"/></clipPath><clipPath id="5e17de9f7a"><path d="M 0 0.800781 L 237.800781 0.800781 L 237.800781 813 L 0 813 Z M 0 0.800781 " clip-rule="nonzero"/></clipPath><clipPath id="2701735725"><path d="M 23.449219 0.820312 L 214.550781 0.820312 C 227.394531 0.820312 237.800781 11.230469 237.800781 24.070312 L 237.800781 789.800781 C 237.800781 802.640625 227.394531 813.050781 214.550781 813.050781 L 23.449219 813.050781 C 10.605469 813.050781 0.199219 802.640625 0.199219 789.800781 L 0.199219 24.070312 C 0.199219 11.230469 10.605469 0.820312 23.449219 0.820312 Z M 23.449219 0.820312 " clip-rule="nonzero"/></clipPath><clipPath id="d8971992f6"><rect x="0" width="238" y="0" height="814"/></clipPath><clipPath id="8710992d12"><path d="M 911 411 L 1148.863281 411 L 1148.863281 1291.390625 L 911 1291.390625 Z M 911 411 " clip-rule="nonzero"/></clipPath><clipPath id="65caccc133"><path d="M 934.507812 411.511719 L 1125.613281 411.511719 C 1138.453125 411.511719 1148.863281 421.921875 1148.863281 434.761719 L 1148.863281 1268.136719 C 1148.863281 1280.976562 1138.453125 1291.386719 1125.613281 1291.386719 L 934.507812 1291.386719 C 921.667969 1291.386719 911.257812 1280.976562 911.257812 1268.136719 L 911.257812 434.761719 C 911.257812 421.921875 921.667969 411.511719 934.507812 411.511719 Z M 934.507812 411.511719 " clip-rule="nonzero"/></clipPath><clipPath id="c9798b70bc"><path d="M 0.0390625 0.359375 L 237.863281 0.359375 L 237.863281 880.390625 L 0.0390625 880.390625 Z M 0.0390625 0.359375 " clip-rule="nonzero"/></clipPath><clipPath id="574a637605"><path d="M 23.507812 0.511719 L 214.613281 0.511719 C 227.453125 0.511719 237.863281 10.921875 237.863281 23.761719 L 237.863281 857.136719 C 237.863281 869.976562 227.453125 880.386719 214.613281 880.386719 L 23.507812 880.386719 C 10.667969 880.386719 0.257812 869.976562 0.257812 857.136719 L 0.257812 23.761719 C 0.257812 10.921875 10.667969 0.511719 23.507812 0.511719 Z M 23.507812 0.511719 " clip-rule="nonzero"/></clipPath><clipPath id="32a278aad8"><rect x="0" width="238" y="0" height="881"/></clipPath><clipPath id="0fce493cba"><path d="M 911.257812 1133.625 L 1084.007812 1133.625 L 1084.007812 1325.429688 L 911.257812 1325.429688 Z M 911.257812 1133.625 " clip-rule="nonzero"/></clipPath><clipPath id="fc1b3fbc1b"><path d="M 0.257812 0.625 L 173.007812 0.625 L 173.007812 192.429688 L 0.257812 192.429688 Z M 0.257812 0.625 " clip-rule="nonzero"/></clipPath><clipPath id="0a904dfd80"><rect x="0" width="174" y="0" height="193"/></clipPath><clipPath id="560591fc14"><path d="M 415.3125 1133.625 L 588.058594 1133.625 L 588.058594 1325.429688 L 415.3125 1325.429688 Z M 415.3125 1133.625 " clip-rule="nonzero"/></clipPath><clipPath id="3ad01cb492"><path d="M 0.3125 0.625 L 173.058594 0.625 L 173.058594 192.429688 L 0.3125 192.429688 Z M 0.3125 0.625 " clip-rule="nonzero"/></clipPath><clipPath id="29197a9444"><rect x="0" width="174" y="0" height="193"/></clipPath><clipPath id="b662fe2735"><path d="M 80.625 0 L 1419.375 0 L 1419.375 1500 L 80.625 1500 Z M 80.625 0 " clip-rule="nonzero"/></clipPath></defs><g clip-path="url(#739e2086b8)"><g clip-path="url(#0daa083ece)"><g transform="matrix(1, 0, 0, 1, 350, 738)"><g clip-path="url(#b10c98da1d)"><g clip-path="url(#9113c5f6b6)"><g clip-path="url(#e325458da5)"><path fill="#ffffff" d="M 0.457031 0.0820312 L 238.058594 0.0820312 L 238.058594 536.550781 L 0.457031 536.550781 Z M 0.457031 0.0820312 " fill-opacity="1" fill-rule="nonzero"/></g></g></g></g></g></g><g clip-path="url(#5eecbbec73)"><g clip-path="url(#1d14867f36)"><g transform="matrix(1, 0, 0, 1, 631, 574)"><g clip-path="url(#d8971992f6)"><g clip-path="url(#5e17de9f7a)"><g clip-path="url(#2701735725)"><path fill="#ffffff" d="M 0.199219 0.820312 L 237.800781 0.820312 L 237.800781 812.945312 L 0.199219 812.945312 Z M 0.199219 0.820312 " fill-opacity="1" fill-rule="nonzero"/></g></g></g></g></g></g><g clip-path="url(#8710992d12)"><g clip-path="url(#65caccc133)"><g transform="matrix(1, 0, 0, 1, 911, 411)"><g clip-path="url(#32a278aad8)"><g clip-path="url(#c9798b70bc)"><g clip-path="url(#574a637605)"><path fill="#1b6b6d" d="M 0.257812 0.511719 L 237.863281 0.511719 L 237.863281 880.390625 L 0.257812 880.390625 Z M 0.257812 0.511719 " fill-opacity="1" fill-rule="nonzero"/></g></g></g></g></g></g><g clip-path="url(#0fce493cba)"><g transform="matrix(1, 0, 0, 1, 911, 1133)"><g clip-path="url(#0a904dfd80)"><g clip-path="url(#fc1b3fbc1b)"><path fill="#1b6b6d" d="M 0.257812 0.625 L 173.007812 0.625 L 173.007812 192.265625 L 0.257812 192.265625 Z M 0.257812 0.625 " fill-opacity="1" fill-rule="nonzero"/></g></g></g></g><g clip-path="url(#560591fc14)"><g transform="matrix(1, 0, 0, 1, 415, 1133)"><g clip-path="url(#29197a9444)"><g clip-path="url(#3ad01cb492)"><path fill="#ffffff" d="M 0.3125 0.625 L 173.058594 0.625 L 173.058594 192.265625 L 0.3125 192.265625 Z M 0.3125 0.625 " fill-opacity="1" fill-rule="nonzero"/></g></g></g></g><g clip-path="url(#b662fe2735)"><path fill="#1b6b6d" d="M 750 0.648438 L 722.546875 16.191406 C 722.546875 16.191406 463.46875 161.890625 136.40625 161.890625 L 80.625 161.890625 L 80.625 789.71875 C 80.625 1034.929688 250.433594 1212.113281 411.101562 1325.160156 C 571.765625 1438.210938 731.695312 1493.375 731.695312 1493.375 L 750 1499.625 L 768.304688 1493.375 C 768.304688 1493.375 928.234375 1438.222656 1088.898438 1325.160156 C 1249.566406 1212.101562 1419.375 1034.816406 1419.375 789.574219 L 1419.375 161.746094 L 1363.59375 161.746094 C 1036.535156 161.816406 777.453125 16.191406 777.453125 16.191406 Z M 750 125.136719 C 785.269531 144.265625 1002.40625 253.277344 1307.8125 267.789062 L 1307.8125 789.574219 C 1307.8125 982.773438 1170.824219 1131.105469 1024.695312 1233.9375 C 887.683594 1330.347656 766.648438 1372.335938 750 1378.328125 C 733.351562 1372.335938 612.316406 1330.339844 475.304688 1233.9375 C 329.175781 1131.113281 192.1875 982.875 192.1875 789.71875 L 192.1875 267.933594 C 497.589844 253.363281 714.734375 144.265625 750 125.136719 Z M 750 125.136719 " fill-opacity="1" fill-rule="nonzero"/></g></svg>